<svg width="61.000000" height="64.000000" viewBox="0 0 61 64" fill="none" xmlns="http://www.w3.org/2000/svg" xmlns:xlink="http://www.w3.org/1999/xlink">
	<desc>
			Created with Pixso.
	</desc>
	<defs>
		<linearGradient id="paint_linear_517_156_0" x1="0.000000" y1="32.000000" x2="61.000000" y2="32.000000" gradientUnits="userSpaceOnUse">
			<stop offset="0.036458" stop-color="#C3956A"/>
			<stop offset="1.000000" stop-color="#A24F03"/>
		</linearGradient>
	</defs>
	<path d="M60.6863 57.9264L56.2811 44.8L51.4473 44.8L54.1317 57.6L6.87004 57.6L9.55441 44.8L4.72061 44.8L0.312195 57.9264C-0.806023 61.2672 1.17583 64 4.72061 64L56.2811 64C59.8259 64 61.8077 61.2672 60.6863 57.9264ZM46.6135 16C46.6135 7.16479 39.4015 0 30.5009 0C21.6002 0 14.3882 7.16479 14.3882 16C14.3882 31.28 30.5009 48 30.5009 48C30.5009 48 46.6135 31.28 46.6135 16ZM21.8 16.192C21.8 11.4208 25.6928 7.55518 30.5009 7.55518C35.3089 7.55518 39.2017 11.4208 39.2017 16.192C39.2017 20.9664 35.3056 24.832 30.5009 24.832C25.6961 24.832 21.8 20.9633 21.8 16.192Z" fill="url(#paint_linear_517_156_0)" fill-opacity="1.000000" fill-rule="nonzero"/>
</svg>
